<svg width="400" height="620" xmlns="http://www.w3.org/2000/svg">
 <defs>
  <marker markerUnits="strokeWidth" orient="auto" refY="3" refX="9" markerHeight="10" markerWidth="10" id="arrow">
   <path id="svg_1" fill="#666" d="m0,0l0,6l9,-3l-9,-3z"/>
  </marker>
 </defs>
 <!-- 1. 数据摄入 Subgraph -->
 <!-- Node: S3 Raw -->
 <!-- Arrow -->
 <!-- Node: Glue -->
 <!-- Arrow Connecting Subgraphs -->
 <!-- 2. 数据处理 Subgraph -->
 <!-- Node: S3 Processed -->
 <!-- Arrow Connecting Subgraphs -->
 <!-- 3. ML 训练 Subgraph -->
 <!-- Node: SageMaker Training -->
 <!-- Arrow Connecting Subgraphs -->
 <!-- 4. 模型部署 Subgraph -->
 <!-- Node: Endpoint -->
 <g>
  <title>Layer 1</title>
  <rect stroke="#ccc" id="svg_2" stroke-dasharray="5,5" fill="#fcfcfc" rx="10" height="158.99999" width="300" y="20" x="50"/>
  <text style="cursor: move;" id="svg_3" font-size="14" font-weight="bold" fill="#777" text-anchor="middle" y="45" x="200">数据摄入</text>
  <rect id="svg_4" stroke-width="2" stroke="#E67E22" fill="#F39C12" rx="5" height="40" width="200" y="60" x="100"/>
  <text style="cursor: move;" id="svg_5" font-weight="bold" fill="white" text-anchor="middle" y="85" x="201">S3 Raw Zone</text>
  <line id="svg_6" marker-end="url(#arrow)" stroke-width="2" stroke="#666" y2="125" x2="200" y1="100" x1="200"/>
  <rect id="svg_7" stroke-width="2" stroke="#6C3483" fill="#8E44AD" rx="5" height="40" width="200" y="130" x="100"/>
  <text style="cursor: move;" id="svg_8" font-weight="bold" fill="white" text-anchor="middle" y="155" x="200">AWS Glue</text>
  <line id="svg_9" marker-end="url(#arrow)" stroke-width="2" stroke="#666" y2="215" x2="200" y1="170" x1="200"/>
  <rect id="svg_10" stroke-dasharray="5,5" stroke="#ccc" fill="#fcfcfc" rx="10" height="100" width="300" y="190" x="50"/>
  <text style="cursor: move;" id="svg_11" font-size="14" font-weight="bold" fill="#777" text-anchor="middle" y="215" x="200">数据处理</text>
  <rect id="svg_12" stroke-width="2" stroke="#229954" fill="#27AE60" rx="5" height="40" width="200" y="230" x="100"/>
  <text style="cursor: move;" id="svg_13" font-weight="bold" fill="white" text-anchor="middle" y="255" x="201">S3 Processed Zone</text>
  <line id="svg_14" marker-end="url(#arrow)" stroke-width="2" stroke="#666" y2="335" x2="200" y1="270" x1="200"/>
  <rect id="svg_15" stroke-dasharray="5,5" stroke="#ccc" fill="#fcfcfc" rx="10" height="100" width="300" y="310" x="50"/>
  <text style="cursor: move;" id="svg_16" font-size="14" font-weight="bold" fill="#777" text-anchor="middle" y="335" x="200">ML 训练</text>
  <rect id="svg_17" stroke-width="2" stroke="#1A5276" fill="#2980B9" rx="5" height="40" width="200" y="350" x="100"/>
  <text style="cursor: move;" id="svg_18" font-weight="bold" fill="white" text-anchor="middle" y="375" x="200">SageMaker Training</text>
  <line id="svg_19" marker-end="url(#arrow)" stroke-width="2" stroke="#666" y2="455" x2="200" y1="390" x1="200"/>
  <rect id="svg_20" stroke-dasharray="5,5" stroke="#ccc" fill="#fcfcfc" rx="10" height="100" width="300" y="430" x="50"/>
  <text style="cursor: move;" id="svg_21" font-size="14" font-weight="bold" fill="#777" text-anchor="middle" y="455" x="200">模型部署</text>
  <rect id="svg_22" stroke-width="2" stroke="#17202A" fill="#2C3E50" rx="5" height="40" width="200" y="470" x="100"/>
  <text style="cursor: move;" id="svg_23" font-weight="bold" fill="white" text-anchor="middle" y="495" x="200">SageMaker Endpoint</text>
 </g>
</svg>